<svg width="16" height="16" viewBox="0 0 16 16" fill="none" xmlns="http://www.w3.org/2000/svg">
<path d="M11.7986 0.00332907L9.60561 0C7.1419 0 5.54974 1.54552 5.54974 3.93762V5.75313H3.34482C3.15429 5.75313 3 5.89927 3 6.07954V8.71001C3 8.89028 3.15447 9.03625 3.34482 9.03625H5.54974V15.6738C5.54974 15.854 5.70403 16 5.89456 16H8.77135C8.96188 16 9.11617 15.8539 9.11617 15.6738V9.03625H11.6942C11.8848 9.03625 12.0391 8.89028 12.0391 8.71001L12.0401 6.07954C12.0401 5.99299 12.0037 5.91009 11.9391 5.84884C11.8746 5.78758 11.7866 5.75313 11.6951 5.75313H9.11617V4.2141C9.11617 3.47438 9.30248 3.09886 10.3209 3.09886L11.7982 3.09836C11.9886 3.09836 12.1429 2.95222 12.1429 2.77211V0.329578C12.1429 0.149642 11.9887 0.00366197 11.7986 0.00332907Z" fill="white"/>
</svg>
