<svg width="83" height="83" viewBox="0 0 83 83" fill="none" xmlns="http://www.w3.org/2000/svg">
<g clip-path="url(#clip0)">
<path d="M34.267 2.60795C34.1171 0.626011 35.5151 -0.836575 37.3192 -0.961001C38.495 -1.03865 39.5434 -0.568859 40.1735 0.189882L39.4345 1.02579C38.9338 0.492916 38.2563 0.136815 37.467 0.183196C36.2911 0.260843 35.4075 1.24139 35.5073 2.53046C35.591 3.77116 36.6079 4.5953 37.7999 4.50158C38.5892 4.4552 39.2486 4.02185 39.6498 3.39454L40.5215 4.07333C40.0079 4.87757 39.043 5.55182 37.8188 5.64546C35.9825 5.76981 34.4168 4.55767 34.267 2.60795Z" fill="white"/>
<path d="M43.4513 3.21071L42.6617 3.1282L42.442 5.51199L41.2657 5.39631L41.8299 -0.981977L44.1986 -0.766692C45.6489 -0.634227 46.2475 0.3822 46.1695 1.42918C46.107 2.20232 45.6255 2.9422 44.6755 3.14929L46.0676 5.82704L44.6818 5.69473L43.4513 3.21071ZM42.7718 2.08131L43.8354 2.1806C44.6088 2.24695 44.93 1.82887 44.9772 1.36179C45.0082 0.878558 44.7493 0.42683 44.1209 0.376947L42.9123 0.261191L42.7718 2.08131Z" fill="white"/>
<path d="M48.3083 -0.160512L52.4512 0.864674L52.18 1.94339L49.1978 1.21106L48.8309 2.67619L51.5713 3.3596L51.3162 4.42225L48.5918 3.72277L48.225 5.25235L51.2073 5.98468L50.9361 7.0634L46.7932 6.03821L48.3083 -0.160512Z" fill="white"/>
<path d="M55.5445 7.33245L53.448 6.45731L52.4036 7.59856L51.2425 7.11238L55.9667 2.16208L56.8053 2.51858L56.629 9.38114L55.4678 8.89496L55.5445 7.33245ZM54.187 5.6214L55.6545 6.22111L55.7615 3.88538L54.187 5.6214Z" fill="white"/>
<path d="M58.7434 4.58568L59.3048 3.60434L63.5318 6.06355L62.9704 7.04489L61.3732 6.12266L58.7423 10.6593L57.7097 10.0445L60.3406 5.50792L58.7434 4.58568Z" fill="white"/>
<path d="M65.5979 7.61508L61.8408 12.7611L60.8885 12.066L64.6295 6.90383L65.5979 7.61508Z" fill="white"/>
<path d="M71.3133 12.6235L65.0213 15.4917L64.3753 14.8779L66.7436 8.37518L67.7447 9.31206L65.9677 13.8347L70.3445 11.7189L71.3133 12.6235Z" fill="white"/>
<path d="M72.3152 13.8502L74.9494 17.1916L74.0811 17.866L72.1741 15.4448L70.9843 16.3762L72.7297 18.6038L71.8775 19.2944L70.1321 17.0669L68.8941 18.0466L70.8011 20.4678L69.9328 21.1423L67.3146 17.7849L72.3152 13.8502Z" fill="white"/>
<path d="M75.3449 27.2614C74.4599 27.6942 73.3476 27.4176 72.7809 26.2724L71.5341 23.7078L77.2785 20.9026L78.4767 23.3544C79.011 24.4351 78.5461 25.3522 77.838 25.6727C77.3392 25.9131 76.6946 25.8471 76.2909 25.4433C76.4541 26.2815 76.0046 26.957 75.3449 27.2614ZM74.891 26.1326C75.3094 25.9403 75.582 25.4416 75.2744 24.8125L74.6428 23.506L73.0176 24.2914L73.6492 25.5979C73.9407 26.2108 74.5048 26.325 74.891 26.1326ZM76.8312 22.4159L75.5117 23.0571L76.0946 24.2507C76.3537 24.7668 76.8211 24.8485 77.1429 24.6882C77.4647 24.5279 77.657 24.1095 77.4142 23.6417L76.8312 22.4159Z" fill="white"/>
<path d="M76.9566 27.62C78.7436 27.125 80.5504 28.1283 81.0865 29.9179C81.5903 31.7073 80.5799 33.5253 78.8089 34.0043C77.0541 34.4993 75.2473 33.496 74.7111 31.6742C74.1912 29.8686 75.1857 28.1311 76.9566 27.62ZM78.4516 32.8434C79.6591 32.5081 80.2523 31.3657 79.9435 30.2534C79.6185 29.1248 78.4892 28.4776 77.3139 28.813C76.1387 29.1485 75.5132 30.2585 75.8221 31.4031C76.1471 32.5316 77.2764 33.1788 78.4516 32.8434Z" fill="white"/>
<path d="M80.8718 34.2995L81.9992 34.1734L82.575 39.024L81.4476 39.1501L81.2337 37.3291L76.0154 37.9284L75.8836 36.7359L81.1019 36.1366L80.8718 34.2995Z" fill="white"/>
<path d="M82.5975 41.5533L76.202 41.6503L76.1829 40.4742L82.5785 40.3772L82.5975 41.5533Z" fill="white"/>
<path d="M74.4484 49.121C74.367 48.7825 74.3499 48.3797 74.3973 48.0093C74.492 47.204 74.9249 46.3835 75.8579 45.8058C76.095 43.9859 77.7352 42.7334 79.524 42.9472C81.3289 43.1772 82.6378 44.8076 82.4008 46.6597C82.1637 48.5118 80.5397 49.7805 78.7348 49.5505C77.3489 49.386 76.2832 48.4167 75.9417 47.1432C75.6524 47.4002 75.4599 47.7542 75.3966 48.2051C75.3651 48.495 75.398 48.7851 75.4471 49.0913L74.4484 49.121ZM76.9699 45.9858C76.8278 47.1615 77.6359 48.1945 78.8446 48.3425C80.0854 48.4906 81.1145 47.6876 81.2566 46.5119C81.3987 45.3362 80.5906 44.3031 79.3497 44.1551C78.125 43.9909 77.112 44.8101 76.9699 45.9858Z" fill="white"/>
<path d="M77.4966 50.5624L81.4306 51.7966L81.0789 52.9234L77.2579 51.7379C76.3711 51.4618 75.8081 51.7988 75.5844 52.5393C75.3607 53.2798 75.6522 53.8927 76.5228 54.1526L80.3278 55.3542L79.9761 56.4811L76.0422 55.247C74.4944 54.7598 74.0723 53.4699 74.4718 52.166C74.8715 50.8943 75.9488 50.0753 77.4966 50.5624Z" fill="white"/>
<path d="M79.1434 58.4768L77.2679 62.2903L76.2679 61.8045L77.6144 59.0691L76.2594 58.3891L75.0091 60.9314L74.0251 60.4296L75.2755 57.8872L73.856 57.1749L72.5095 59.9103L71.5095 59.4245L73.3849 55.611L79.1434 58.4768Z" fill="white"/>
<path d="M70.9695 69.1055L71.777 69.913L68.3056 73.3198L67.4981 72.5123L68.816 71.2267L65.1174 67.4639L65.9531 66.6282L69.6516 70.3911L70.9695 69.1055Z" fill="white"/>
<path d="M64.7072 71.0071L67.1319 74.3318L66.1831 75.0222L63.8391 71.7782C63.2896 71.0358 62.645 70.9698 62.0177 71.4032C61.4067 71.8528 61.2795 72.5291 61.7967 73.2392L64.1407 76.4832L63.1759 77.1896L60.7511 73.8649C59.7812 72.5415 60.2131 71.2698 61.3227 70.4832C62.4002 69.6964 63.7695 69.6837 64.7072 71.0071Z" fill="white"/>
<path d="M61.2455 78.3772L59.041 79.4511C57.3354 80.2846 55.7551 79.6685 54.8807 77.8942C54.0226 76.1361 54.518 74.5102 56.2558 73.6767L58.412 72.6188L61.2455 78.3772ZM56.7095 74.7089C55.6314 75.2379 55.4891 76.3491 55.991 77.3653C56.493 78.3815 57.461 78.9317 58.523 78.4188L59.6815 77.8416L57.868 74.1318L56.7095 74.7089Z" fill="white"/>
<path d="M53.521 81.6766L51.4439 75.614L52.5707 75.2301L54.6478 81.2927L53.521 81.6766Z" fill="white"/>
<path d="M51.2431 79.1417C51.6181 80.9631 50.4624 82.7002 48.6267 83.0501C46.8072 83.4161 45.0804 82.2358 44.7216 80.4305C44.3627 78.6253 45.4862 76.9204 47.338 76.5544C49.2059 76.2046 50.8681 77.3525 51.2431 79.1417ZM45.9292 80.1919C46.1739 81.4007 47.2711 82.1123 48.3983 81.8895C49.5577 81.6669 50.28 80.5893 50.0354 79.3804C49.7907 78.1715 48.7257 77.46 47.5663 77.6827C46.407 77.9376 45.6685 78.9991 45.9292 80.1919Z" fill="white"/>
<path d="M23.548 78.5415L22.7253 78.0722L23.4099 74.7713L20.8701 77.0527L20.4183 76.7938L20.9899 73.4121L18.5792 75.7582L17.7564 75.289L21.4052 71.931L22.0021 72.2707L21.3819 75.5718L23.8412 73.3063L24.4381 73.6461L23.548 78.5415Z" fill="white"/>
<path d="M17.1592 74.9172L16.4166 74.3032L17.6977 71.181L14.8023 72.9782L14.3987 72.6389L15.5507 69.4197L12.7521 71.2815L12.0095 70.6675L16.2077 68.0197L16.7405 68.456L15.5399 71.5945L18.3709 69.7972L18.9036 70.2335L17.1592 74.9172Z" fill="white"/>
<path d="M11.509 70.199L10.8789 69.4725L12.6924 66.6254L9.50561 67.8742L9.1663 67.4706L10.8828 64.5266L7.79297 65.8722L7.16287 65.1457L11.7658 63.2883L12.2182 63.8049L10.4854 66.6683L13.5915 65.4033L14.0439 65.9199L11.509 70.199Z" fill="white"/>
<path d="M10.7325 62.4481C10.5073 62.6087 10.2172 62.5435 10.0394 62.3014C9.87772 62.0755 9.94145 61.7857 10.1666 61.6251C10.3917 61.4646 10.698 61.5136 10.8596 61.7396C11.0052 61.9816 10.9737 62.2715 10.7325 62.4481Z" fill="white"/>
<path d="M6.01438 63.2257L5.1083 61.6446C4.41257 60.4346 4.76405 59.2434 6.03498 58.5215C7.27369 57.7996 8.49879 58.0926 9.21076 59.351L10.1006 60.8837L6.01438 63.2257ZM8.45448 59.7197C8.00148 58.9453 7.17973 58.8949 6.43969 59.3119C5.73187 59.7291 5.36312 60.4531 5.81612 61.2275L6.28535 62.0503L8.92371 60.5425L8.45448 59.7197Z" fill="white"/>
<path d="M3.16575 57.8701L7.44626 55.9153L7.81875 56.7056L3.53824 58.6605L3.16575 57.8701Z" fill="white"/>
<path d="M2.61481 56.6444L1.54436 53.7419L2.31694 53.4538L3.07927 55.5339L4.1416 55.1499L3.47657 53.3278L4.24916 53.0397L4.91418 54.8618L6.71688 54.1897L7.02501 55.012L2.61481 56.6444Z" fill="white"/>
<path d="M1.25199 52.7423L0.455211 49.7599L1.26026 49.5685L1.82942 51.7126L2.92421 51.4253L2.43627 49.5553L3.24132 49.364L3.72925 51.234L5.59686 50.7553L5.82448 51.5936L1.25199 52.7423Z" fill="white"/>
<path d="M3.53912 46.0299L3.78487 47.6899L4.91316 47.9182L5.06043 48.8369L0.127931 47.7292L0.0135285 47.0684L4.4055 44.5821L4.55276 45.5008L3.53912 46.0299ZM2.97904 47.559L2.799 46.4147L1.28661 47.2165L2.97904 47.559Z" fill="white"/>
<path d="M2.58071 42.7571L2.61437 43.3372L4.38635 43.2771L4.42072 44.1472L-0.283122 44.2967L-0.335795 42.5405C-0.386793 41.461 0.304641 40.9311 1.07786 40.9007C1.64169 40.886 2.23845 41.1614 2.48182 41.8547L4.3153 40.6027L4.35007 41.6338L2.58071 42.7571ZM1.80892 43.3674L1.79086 42.578C1.77336 42.0141 1.43452 41.8038 1.08009 41.8029C0.725663 41.8021 0.42024 42.0752 0.437426 42.5102L0.455724 43.3963L1.80892 43.3674Z" fill="white"/>
<path d="M0.415887 40.303L-0.422013 40.2365L-0.189233 36.6444L0.648672 36.7109L0.555352 38.064L4.42248 38.3313L4.36019 39.2011L0.493056 38.9338L0.415887 40.303Z" fill="white"/>
<path d="M3.70982 36.8476L3.20885 36.218C3.70776 36.0098 3.99671 35.5917 4.07611 35.1247C4.15559 34.6899 3.96147 34.3672 3.65525 34.3181C3.41347 34.2692 3.20448 34.4459 3.06 34.655C2.86739 34.9445 2.67494 35.2984 2.45011 35.5879C2.14492 35.9576 1.74284 36.2305 1.1787 36.1164C0.437299 35.9857 -0.0477668 35.2756 0.111032 34.3416C0.190272 33.8101 0.478988 33.2953 1.0098 32.9583L1.55898 33.5396C1.20511 33.7643 0.98052 34.1504 0.932944 34.4564C0.869457 34.8429 1.01513 35.1171 1.32134 35.1662C1.56312 35.2151 1.7399 35.0384 1.88445 34.8615C2.045 34.6364 2.33387 34.186 2.52648 33.8965C2.83159 33.4945 3.2176 33.2376 3.79782 33.3357C4.61981 33.4828 5.07281 34.2572 4.91417 35.2556C4.77097 35.9802 4.35352 36.5592 3.70982 36.8476Z" fill="white"/>
<path d="M4.8283 33.1126C4.57038 33.0475 4.40864 32.7893 4.47237 32.4995C4.53617 32.2419 4.79355 32.0814 5.05147 32.1465C5.34162 32.2117 5.48729 32.4859 5.42348 32.7435C5.35968 33.0011 5.11845 33.1777 4.8283 33.1126Z" fill="white"/>
<path d="M3.19691 31.3203C1.8103 30.8657 1.21084 29.4949 1.6266 28.2393C1.89844 27.4184 2.52527 26.8238 3.20143 26.6322L3.55769 27.3741C3.04264 27.5662 2.62464 27.9196 2.43267 28.4669C2.16083 29.2878 2.58193 30.191 3.46868 30.4671C4.33935 30.7592 5.17598 30.3102 5.4639 29.4732C5.65587 28.9259 5.5417 28.3618 5.23445 27.8938L5.95842 27.4928C6.37872 28.0739 6.5419 28.912 6.25406 29.7812C5.83838 31.069 4.58352 31.7748 3.19691 31.3203Z" fill="white"/>
<path d="M4.77997 26.6362C3.55406 26.021 3.0511 24.586 3.64412 23.3469C4.23714 22.1079 5.70204 21.6443 6.91179 22.2434C8.12155 22.8425 8.62451 24.2775 8.01542 25.5326C7.39018 26.7716 5.98972 27.2353 4.77997 26.6362ZM6.52713 23.048C5.70451 22.6432 4.80312 22.9631 4.43445 23.7194C4.04971 24.4918 4.35807 25.4108 5.1807 25.8156C5.98718 26.2042 6.88864 25.9165 7.27338 25.1441C7.64197 24.3556 7.33361 23.4366 6.52713 23.048Z" fill="white"/>
<path d="M5.44037 20.0648L5.76147 19.6145L9.09636 19.6389L7.91262 16.5266L8.23371 16.0763L12.1069 18.7924L11.6093 19.5162L9.31761 17.8995L10.1934 20.2538L10.0328 20.4789L7.51961 20.4727L9.81127 22.0894L9.32971 22.7971L5.44037 20.0648Z" fill="white"/>
<path d="M57.6477 26.8634C54.3816 23.4543 46.7988 21.6361 37.64 25.4771C28.504 29.318 23.5706 35.2271 24.667 39.2498C25.1009 40.8861 26.9966 42.568 28.1843 42.9771C29.075 43.2725 29.2121 42.818 28.7324 42.4316C26.6083 40.6816 26.3571 38.7725 29.4176 34.8861C34.351 28.5907 42.482 25.9998 48.8315 25.8861C54.0847 25.7952 61.0052 28.6134 55.9576 36.4771C50.9556 44.2952 43.3956 48.6361 35.9955 52.0907C28.6182 55.5452 20.8299 56.8862 20.5101 56.1362C20.1903 55.4089 24.9867 52.3407 29.1892 50.7271C29.8288 50.4771 29.7146 49.9543 28.9608 50.1362C27.6818 50.4316 18.7514 53.9998 18.6372 56.5225C18.6144 56.9543 20.0533 59.2498 21.2867 59.2725C22.52 59.318 37.1375 57.318 49.7223 48.068C62.9465 38.3634 60.594 29.9316 57.6477 26.8634Z" fill="white"/>
<path d="M45.8395 32.7043C46.7759 32.1134 45.6339 31.5907 44.9259 31.9089C41.9339 33.227 36.7036 37.0907 33.7572 41.9998C30.788 46.9089 34.0998 48.7043 37.3202 47.4089C37.3202 47.4089 35.8356 47.2043 35.9727 45.477C36.4295 39.7725 42.5734 34.7952 45.8395 32.7043Z" fill="white"/>
<path d="M53.5138 51.6593C55.0212 51.6366 56.1403 49.682 56.1403 49.0684C56.1403 48.4548 54.2903 48.2957 53.2625 48.9093C52.5773 49.2957 51.9835 51.682 53.5138 51.6593Z" fill="white"/>
</g>
<defs>
<clipPath id="clip0">
<rect width="83" height="83" fill="white"/>
</clipPath>
</defs>
</svg>
