<svg width="10" height="16" viewBox="0 0 10 16" fill="none" xmlns="http://www.w3.org/2000/svg">
<path d="M8.79856 0.00332907L6.60561 0C4.1419 0 2.54974 1.54552 2.54974 3.93762V5.75313H0.344821C0.15429 5.75313 0 5.89927 0 6.07954V8.71001C0 8.89028 0.154466 9.03625 0.344821 9.03625H2.54974V15.6738C2.54974 15.854 2.70403 16 2.89456 16H5.77135C5.96188 16 6.11617 15.8539 6.11617 15.6738V9.03625H8.69424C8.88477 9.03625 9.03906 8.89028 9.03906 8.71001L9.04012 6.07954C9.04012 5.99299 9.0037 5.91009 8.93913 5.84884C8.87457 5.78758 8.7866 5.75313 8.69512 5.75313H6.11617V4.2141C6.11617 3.47438 6.30248 3.09886 7.32094 3.09886L8.79821 3.09836C8.98857 3.09836 9.14286 2.95222 9.14286 2.77211V0.329578C9.14286 0.149642 8.98874 0.00366197 8.79856 0.00332907Z" fill="#020055"/>
</svg>
