<svg width="21" height="21" viewBox="0 0 21 21" fill="none" xmlns="http://www.w3.org/2000/svg">
<path d="M4.92188 10.5001C4.92188 9.4583 5.20898 8.48623 5.70527 7.64951V4.10986H2.16562C0.762891 5.93506 0 8.15811 0 10.5001C0 12.8421 0.762891 15.0651 2.16562 16.8903H5.70527V13.3507C5.20898 12.514 4.92188 11.5419 4.92188 10.5001Z" fill="white"/>
<path d="M10.5 16.0781L8.03906 18.5391L10.5 21C12.842 21 15.065 20.2371 16.8902 18.8344V15.2988H13.3547C12.5098 15.7951 11.5336 16.0781 10.5 16.0781Z" fill="white"/>
<path d="M5.70527 13.3506L2.16562 16.8902C2.44453 17.2512 2.74804 17.5957 3.07617 17.9238C5.06132 19.909 7.69453 21 10.5 21V16.0781C8.46562 16.0781 6.68144 14.983 5.70527 13.3506Z" fill="white"/>
<path d="M21 10.4999C21 9.86006 20.9426 9.22022 20.8277 8.59678L20.7334 8.09229H10.5V13.0142H15.4834C14.9994 13.978 14.257 14.7614 13.3547 15.2946L16.8902 18.8302C17.2512 18.5513 17.5957 18.2478 17.9238 17.9196C19.909 15.9427 21 13.3054 21 10.4999Z" fill="white"/>
<path d="M14.4457 6.5543L14.8805 6.98906L18.3627 3.50684L17.9238 3.07617C15.9428 1.09102 13.3055 0 10.5 0L8.03906 2.46094L10.5 4.92188C11.9889 4.92188 13.3916 5.5002 14.4457 6.5543Z" fill="white"/>
<path d="M10.5 4.92188V0C7.69453 0 5.05722 1.09102 3.07617 3.07617C2.74804 3.4043 2.44453 3.74883 2.16562 4.10977L5.70527 7.64941C6.68144 6.01699 8.46562 4.92188 10.5 4.92188Z" fill="white"/>
</svg>
