<svg width="20" height="20" viewBox="0 0 20 20" fill="none" xmlns="http://www.w3.org/2000/svg">
<path d="M11.8426 3.76814C11.5113 4.0994 11.0144 4.0994 10.6832 3.76814C10.3519 3.43688 10.3519 2.93998 10.6832 2.60872L11.884 1.40789C13.7473 -0.455463 16.7701 -0.455463 18.6335 1.40789C20.4968 3.27125 20.4968 6.29402 18.6335 8.15737L13.913 12.7951C12.0496 14.6584 9.02684 14.6584 7.16349 12.7951C6.83222 12.4638 6.83222 11.9669 7.16349 11.6356C7.49475 11.3044 7.99164 11.3044 8.32291 11.6356C9.52374 12.8365 11.5113 12.8365 12.7121 11.6356L17.3912 6.95655C18.5921 5.75572 18.5921 3.76814 17.3912 2.56731C16.1904 1.36648 14.2028 1.36648 13.002 2.56731L11.8426 3.76814Z" fill="#020055"/>
<path d="M8.15716 16.2733C8.48842 15.9421 8.98531 15.9421 9.31658 16.2733C9.64784 16.6046 9.64784 17.1015 9.31658 17.4328L8.11575 18.6336C6.25239 20.4969 3.22962 20.4969 1.36627 18.6336C-0.497089 16.7702 -0.497089 13.7475 1.36627 11.8841L6.04535 7.20501C7.90871 5.34166 10.9315 5.34166 12.7948 7.20501C13.1261 7.53627 13.1261 8.03317 12.7948 8.36443C12.4636 8.69569 11.9667 8.69569 11.6354 8.36443C10.4346 7.1636 8.44701 7.1636 7.24618 8.36443L2.56709 13.0435C1.36627 14.2443 1.36627 16.2319 2.56709 17.4328C3.76792 18.6336 5.7555 18.6336 6.95633 17.4328L8.15716 16.2733Z" fill="#020055"/>
</svg>
