<svg width="28" height="28" viewBox="0 0 28 28" fill="none" xmlns="http://www.w3.org/2000/svg">
<path d="M13.308 0.991299C13.5647 0.376529 14.4356 0.376528 14.6923 0.991299L17.9136 8.70802C18.0162 8.95371 18.2413 9.12662 18.5051 9.16232L26.9544 10.3059C27.6046 10.3939 27.8363 11.2154 27.328 11.6302L20.7875 16.9675C20.566 17.1482 20.4665 17.4392 20.5309 17.7177L22.6231 26.7585C22.7782 27.4287 22.0246 27.9367 21.4615 27.5415L14.431 22.6071C14.1724 22.4256 13.8279 22.4256 13.5693 22.6071L6.53874 27.5415C5.97571 27.9367 5.22211 27.4287 5.37718 26.7586L7.46919 17.7176C7.53363 17.4391 7.43416 17.1482 7.21268 16.9675L0.672298 11.6302C0.163973 11.2154 0.395718 10.3939 1.04589 10.3059L9.4952 9.16232C9.75903 9.12662 9.98416 8.95371 10.0867 8.70802L13.308 0.991299Z" fill="#F7D39B"/>
</svg>
