<svg width="19" height="18" viewBox="0 0 19 18" fill="none" xmlns="http://www.w3.org/2000/svg">
<g clip-path="url(#clip0)">
<path d="M18.4094 12.799L12.435 2.03329C11.6961 0.727705 10.6616 0 9.50054 0C8.33943 0 7.30498 0.727705 6.56609 2.03329L0.591651 12.799C-0.126127 14.1046 -0.18946 15.3888 0.401651 16.4162C0.992762 17.4435 2.13276 18.0214 3.61054 18.0214H15.4116C16.8894 18.0214 18.0294 17.4649 18.6205 16.4162C19.1905 15.3674 19.1272 14.1046 18.4094 12.799ZM17.2694 15.6029C16.9739 16.1379 16.2983 16.4162 15.4116 16.4162H3.61054C2.72387 16.4162 2.04832 16.1165 1.75276 15.6029C1.45721 15.0678 1.52054 14.3401 1.96387 13.5482L7.93832 2.7824C8.19165 2.33294 8.74054 1.56243 9.52165 1.56243C10.3028 1.56243 10.8516 2.33294 11.105 2.7824L17.0794 13.5482C17.5016 14.3615 17.565 15.0892 17.2694 15.6029Z" fill="#D30C00"/>
<path d="M9.50007 12.6279C8.8034 12.6279 8.2334 13.2058 8.2334 13.9121C8.2334 14.6184 8.8034 15.1963 9.50007 15.1963C10.1967 15.1963 10.7667 14.6184 10.7667 13.9121C10.7667 13.2058 10.1967 12.6279 9.50007 12.6279Z" fill="#D30C00"/>
<path d="M8.65553 10.7015V10.8513C8.65553 11.3222 9.03553 11.6861 9.49998 11.6861C9.96442 11.6861 10.3444 11.3008 10.3444 10.8513C10.4289 9.46015 10.6611 5.92864 10.6611 5.82162V5.80022C10.6611 5.15812 10.1333 4.62305 9.49998 4.62305C8.84553 4.62305 8.33887 5.15812 8.33887 5.80022V5.82162C8.33887 5.88583 8.44442 7.61948 8.65553 10.7015Z" fill="#D30C00"/>
</g>
<defs>
<clipPath id="clip0">
<rect width="19" height="18" fill="white"/>
</clipPath>
</defs>
</svg>
