<svg width="20" height="21" viewBox="0 0 20 21" fill="none" xmlns="http://www.w3.org/2000/svg">
<path d="M1 12.7084C1 11.0516 2.36468 9.70841 4.02154 9.70841V9.70841C4.82379 9.70841 5.5579 9.22903 5.8717 8.4907L8.42832 2.4751C8.60442 2.06076 9.01105 1.79175 9.46126 1.79175V1.79175C10.8045 1.79175 11.847 2.96359 11.6907 4.29772L11.4384 6.4505C11.334 7.34201 12.0306 8.12508 12.9282 8.12508H15.2311C17.2243 8.12508 18.6633 10.0328 18.1157 11.9492L16.6633 17.0326C16.2954 18.3205 15.1182 19.2084 13.7788 19.2084H4C2.34315 19.2084 1 17.8653 1 16.2084V12.7084Z" stroke="#FCFCFC" stroke-width="2"/>
<path d="M4.95825 8.91675V19.2084" stroke="#FCFCFC" stroke-width="2"/>
</svg>
