<svg width="273" height="61" viewBox="0 0 273 61" fill="none" xmlns="http://www.w3.org/2000/svg">
<g clip-path="url(#clip0)">
<path d="M27.0277 0C12.1132 0 0 12.0897 0 26.9755C0 37.0174 5.83957 46.4687 14.8751 51.0368L26.7121 60.9606L26.7516 61L39.2593 51.0368C43.6784 48.7921 47.4268 45.366 50.0309 41.113C52.6745 36.8599 54.0555 31.9374 54.0555 26.9755C54.0555 12.0897 41.9423 0 27.0277 0ZM24.0291 31.7799H30.421L34.9191 48.8709L26.7516 55.3292L19.097 48.9496L24.0291 31.7799ZM32.0782 22.2105L30.6183 27.2905H23.9501L22.4902 22.2105H32.0782ZM37.9967 17.8786L38.0361 17.7999H16.5718L19.965 29.6533L15.1908 46.193C8.56208 42.0975 4.41914 34.7334 4.41914 27.0148C4.41914 14.5707 14.5595 4.44997 27.0277 4.44997C39.496 4.44997 49.6364 14.5707 49.6364 27.0148C49.6364 34.8909 45.6118 42.0581 38.9042 46.193L34.564 29.6927L37.9967 17.8786Z" fill="#7A72DF"/>
<path d="M144.806 45.2874H73.7837V50.4068H144.806V45.2874Z" fill="#F7D39B"/>
<path d="M73.7837 45.2873C74.1783 45.2873 74.928 45.2873 75.362 45.2873C75.7566 45.2873 76.23 45.2873 76.5457 45.2873C77.0981 45.2873 77.5321 45.1692 77.8872 44.8935C78.2423 44.6179 78.5974 44.1453 78.9525 43.4364C79.3076 42.7276 79.6628 41.7825 80.0179 40.5617L71.1401 18.2725H77.0981L83.1349 34.7334L88.4616 18.2725H93.946L84.5159 45.0117C84.1608 45.9962 83.6479 46.9019 82.9376 47.7289C82.2274 48.5559 81.3594 49.186 80.3335 49.6585C79.3076 50.1311 78.9131 50.0917 76.8219 50.3674C76.5062 50.4067 75.7171 50.4855 75.3225 50.4855C74.849 50.4855 74.1388 50.4855 73.7443 50.4855V45.2873H73.7837Z" fill="#020055"/>
<path d="M106.73 40.8768C104.915 40.8768 103.258 40.5618 101.798 39.9711C100.338 39.3804 99.1148 38.514 98.0889 37.4507C97.063 36.3875 96.2739 35.1667 95.761 33.749C95.2086 32.3707 94.9324 30.9136 94.9324 29.3778C94.9324 27.8419 95.2086 26.3455 95.761 24.9672C96.3133 23.5889 97.1025 22.3681 98.0889 21.2654C99.1148 20.2022 100.338 19.3358 101.798 18.7451C103.258 18.1544 104.915 17.8394 106.73 17.8394C108.545 17.8394 110.202 18.1544 111.662 18.7451C113.122 19.3358 114.345 20.2022 115.371 21.2654C116.397 22.3287 117.186 23.5495 117.699 24.9672C118.212 26.3455 118.488 27.8026 118.488 29.3778C118.488 30.9136 118.212 32.3707 117.699 33.749C117.186 35.1273 116.397 36.3481 115.371 37.4507C114.345 38.514 113.122 39.3804 111.662 39.9711C110.202 40.5618 108.584 40.8768 106.73 40.8768ZM100.851 29.4171C100.851 30.7167 101.127 31.8587 101.64 32.8432C102.153 33.8277 102.863 34.6153 103.731 35.1667C104.599 35.718 105.625 35.9937 106.73 35.9937C107.835 35.9937 108.821 35.718 109.689 35.1273C110.557 34.5366 111.267 33.749 111.82 32.7645C112.333 31.78 112.609 30.6379 112.609 29.3384C112.609 28.0782 112.333 26.9362 111.82 25.9517C111.307 24.9278 110.597 24.1402 109.689 23.5889C108.821 23.0375 107.795 22.7619 106.73 22.7619C105.625 22.7619 104.599 23.0375 103.731 23.6283C102.863 24.219 102.153 25.0066 101.64 25.9911C101.127 26.9756 100.851 28.1176 100.851 29.4171Z" fill="#020055"/>
<path d="M122.157 32.1344V18.2332H127.918V30.9136C127.918 32.6069 128.234 33.8671 128.865 34.7335C129.496 35.5998 130.443 36.033 131.667 36.033C132.416 36.033 133.166 35.8755 133.876 35.5998C134.586 35.3242 135.297 34.8516 135.888 34.2609C136.52 33.6702 137.033 32.922 137.467 32.0162V18.2332H143.227V34.064C143.227 34.6547 143.346 35.0879 143.543 35.3242C143.74 35.5605 144.095 35.718 144.608 35.7967V40.483C144.016 40.5618 143.543 40.6405 143.188 40.6799C142.793 40.7193 142.438 40.7587 142.122 40.7587C141.097 40.7587 140.268 40.5224 139.597 40.0498C138.966 39.5772 138.571 38.9472 138.453 38.1202L138.335 36.3481C137.348 37.8445 136.046 38.9865 134.468 39.7741C132.89 40.5618 131.154 40.9556 129.26 40.9556C126.932 40.9556 125.196 40.2073 123.972 38.7109C122.749 37.1751 122.157 35.0091 122.157 32.1344Z" fill="#020055"/>
<path d="M159.168 40.8767C157.55 40.8767 156.09 40.5617 154.709 39.971C153.328 39.3409 152.144 38.5139 151.158 37.4506C150.172 36.3874 149.382 35.1666 148.83 33.7489C148.278 32.3706 148.001 30.8741 148.001 29.2596C148.001 27.1724 148.475 25.2821 149.422 23.5494C150.369 21.8167 151.71 20.4384 153.407 19.4145C155.104 18.3906 156.998 17.8787 159.168 17.8787C161.377 17.8787 163.311 18.3906 164.928 19.4539C166.586 20.5171 167.888 21.8954 168.795 23.5888C169.742 25.3215 170.216 27.1724 170.216 29.2202C170.216 29.4565 170.216 29.6534 170.216 29.8896C170.216 30.0865 170.216 30.2834 170.176 30.3622H151.04C151.197 31.9374 151.631 33.3551 152.381 34.6153C153.131 35.8361 154.117 36.8206 155.34 37.5688C156.564 38.2776 157.866 38.6714 159.326 38.6714C160.785 38.6714 162.166 38.317 163.468 37.5688C164.771 36.8206 165.678 35.8361 166.191 34.6546L168.716 35.3241C168.243 36.3874 167.572 37.3325 166.625 38.1989C165.678 39.0652 164.573 39.7347 163.311 40.2073C162.009 40.6404 160.628 40.8767 159.168 40.8767ZM150.921 28.275H167.454C167.335 26.6605 166.901 25.2428 166.152 24.022C165.402 22.8012 164.415 21.8561 163.192 21.1472C161.969 20.4384 160.628 20.1233 159.168 20.1233C157.708 20.1233 156.366 20.4778 155.183 21.1472C153.999 21.8561 153.012 22.8012 152.223 24.022C151.474 25.3215 151.04 26.6998 150.921 28.275Z" fill="#020055"/>
<path d="M174.556 18.2332L181.106 26.9362L181.461 27.5663L181.816 26.9362L188.326 18.2332H191.641L183.157 29.4171L191.641 40.483H188.326L181.816 31.8193L181.461 31.2286L181.106 31.8193L174.595 40.483H171.281L179.725 29.4171L171.281 18.2332H174.556Z" fill="#020055"/>
<path d="M206.91 40.8767C205.056 40.8767 203.399 40.4042 201.899 39.4197C200.439 38.4352 199.256 37.2537 198.388 35.8361V49.5798H195.468V18.2331H198.072V22.5649C198.94 21.1866 200.163 20.0446 201.623 19.1782C203.122 18.3118 204.701 17.8787 206.397 17.8787C207.936 17.8787 209.356 18.1937 210.659 18.8238C211.961 19.4539 213.065 20.3202 214.012 21.3835C214.959 22.4468 215.709 23.7069 216.222 25.0852C216.735 26.4636 217.011 27.8812 217.011 29.3777C217.011 31.4648 216.577 33.3551 215.748 35.1272C214.92 36.8599 213.736 38.2776 212.197 39.3409C210.737 40.3648 208.962 40.8767 206.91 40.8767ZM206.121 38.317C207.344 38.317 208.449 38.0807 209.435 37.5688C210.422 37.0568 211.25 36.3874 211.961 35.5604C212.671 34.694 213.184 33.7489 213.578 32.6856C213.933 31.6224 214.131 30.5197 214.131 29.3777C214.131 28.1963 213.933 27.0543 213.499 25.991C213.065 24.9277 212.474 23.9432 211.724 23.1556C210.935 22.3286 210.067 21.6985 209.08 21.1866C208.094 20.714 206.989 20.4778 205.805 20.4778C205.056 20.4778 204.306 20.6353 203.477 20.9109C202.688 21.1866 201.899 21.5804 201.189 22.1317C200.439 22.6437 199.847 23.2344 199.374 23.9038C198.9 24.5733 198.585 25.2428 198.466 25.991V32.8038C198.94 33.867 199.532 34.8122 200.321 35.6392C201.11 36.4661 201.978 37.1356 203.004 37.6475C203.951 38.0807 205.016 38.317 206.121 38.317Z" fill="#020055"/>
<path d="M231.649 40.8767C230.032 40.8767 228.572 40.5617 227.191 39.971C225.81 39.3409 224.626 38.5139 223.64 37.4506C222.653 36.3874 221.864 35.1666 221.312 33.7489C220.759 32.3706 220.483 30.8741 220.483 29.2596C220.483 27.1724 220.957 25.2821 221.904 23.5494C222.851 21.8167 224.192 20.4384 225.889 19.4145C227.585 18.3906 229.479 17.8787 231.649 17.8787C233.859 17.8787 235.792 18.3906 237.41 19.4539C239.067 20.5171 240.369 21.8954 241.277 23.5888C242.224 25.3215 242.697 27.1724 242.697 29.2202C242.697 29.4565 242.697 29.6534 242.697 29.8896C242.697 30.0865 242.697 30.2834 242.658 30.3622H223.521C223.679 31.9374 224.113 33.3551 224.863 34.6153C225.613 35.8361 226.599 36.8206 227.822 37.5688C229.045 38.2776 230.347 38.6714 231.807 38.6714C233.267 38.6714 234.648 38.317 235.95 37.5688C237.252 36.8206 238.16 35.8361 238.673 34.6546L241.198 35.3241C240.724 36.3874 240.054 37.3325 239.107 38.1989C238.16 39.0652 237.055 39.7347 235.792 40.2073C234.49 40.6404 233.109 40.8767 231.649 40.8767ZM223.403 28.275H239.935C239.817 26.6605 239.383 25.2428 238.633 24.022C237.883 22.8012 236.897 21.8561 235.674 21.1472C234.451 20.4384 233.109 20.1233 231.649 20.1233C230.189 20.1233 228.848 20.4778 227.664 21.1866C226.481 21.8954 225.494 22.8406 224.705 24.0614C223.955 25.3215 223.521 26.6998 223.403 28.275Z" fill="#020055"/>
<path d="M258.362 20.714C256.428 20.7534 254.692 21.3047 253.232 22.3286C251.772 23.3525 250.707 24.7702 250.115 26.5816V40.4829H247.195V18.233H249.957V23.51C250.746 21.9348 251.772 20.6746 253.035 19.6901C254.297 18.7056 255.678 18.1937 257.099 18.0755C257.375 18.0361 257.651 18.0361 257.849 18.0361C258.046 18.0361 258.243 18.0361 258.401 18.0755V20.714H258.362Z" fill="#020055"/>
<path d="M273 39.5772C272.763 39.656 272.408 39.8135 271.935 40.0498C271.461 40.2861 270.869 40.483 270.159 40.6405C269.449 40.798 268.739 40.9162 267.91 40.9162C267.082 40.9162 266.292 40.7586 265.582 40.4436C264.833 40.1285 264.28 39.656 263.846 38.9865C263.412 38.3564 263.215 37.5295 263.215 36.5843V20.5172H260.137V18.1937H263.215V10.6721H266.135V18.2331H271.303V20.5566H266.135V35.7967C266.174 36.5843 266.49 37.2144 267.003 37.6082C267.516 38.002 268.147 38.1989 268.818 38.1989C269.607 38.1989 270.356 38.0808 270.988 37.8051C271.658 37.5294 272.053 37.3325 272.171 37.2144L273 39.5772Z" fill="#020055"/>
</g>
<defs>
<clipPath id="clip0">
<rect width="273" height="61" fill="white"/>
</clipPath>
</defs>
</svg>
