<svg width="43" height="43" viewBox="0 0 43 43" fill="none" xmlns="http://www.w3.org/2000/svg">
<path d="M20.8079 0.699627C21.0645 0.0848564 21.9355 0.0848567 22.1921 0.699628L27.5804 13.6074C27.683 13.8531 27.9081 14.026 28.1719 14.0617L42.2459 15.9665C42.8961 16.0545 43.1278 16.876 42.6195 17.2908L31.7008 26.2008C31.4793 26.3815 31.3799 26.6725 31.4443 26.951L34.9384 42.0502C35.0935 42.7204 34.3399 43.2283 33.7769 42.8332L21.9309 34.5189C21.6723 34.3375 21.3277 34.3374 21.0691 34.5189L9.22305 42.8332C8.66002 43.2284 7.90642 42.7204 8.0615 42.0502L11.5554 26.951C11.6198 26.6725 11.5203 26.3815 11.2989 26.2008L0.380458 17.2908C-0.127867 16.876 0.103878 16.0545 0.754052 15.9665L14.828 14.0617C15.0919 14.026 15.317 13.8531 15.4196 13.6074L20.8079 0.699627Z" fill="#F7D39B"/>
</svg>
