<svg width="111" height="125" viewBox="0 0 111 125" fill="none" xmlns="http://www.w3.org/2000/svg">
<path d="M55.5 0C24.8737 0 0 24.774 0 55.2776C0 75.8554 11.9912 95.2227 30.5453 104.584L54.8518 124.919L54.9328 125L80.6168 104.584C89.6912 99.9839 97.3883 92.9632 102.736 84.2479C108.164 75.5326 111 65.4454 111 55.2776C111 24.774 86.1263 0 55.5 0ZM49.3423 65.1227H62.4679L71.7044 100.145L54.9328 113.38L39.2146 100.307L49.3423 65.1227ZM65.8708 45.5132L62.873 55.9232H49.1803L46.1825 45.5132H65.8708ZM78.0241 36.6365L78.1051 36.4751H34.0292L40.9971 60.765L31.1934 94.6579C17.5818 86.2653 9.07445 71.1749 9.07445 55.3583C9.07445 29.858 29.8971 9.11879 55.5 9.11879C81.1029 9.11879 101.926 29.858 101.926 55.3583C101.926 71.4977 93.6613 86.1846 79.8876 94.6579L70.9752 60.8457L78.0241 36.6365Z" fill="white"/>
</svg>
