<svg width="59" height="59" viewBox="0 0 59 59" fill="none" xmlns="http://www.w3.org/2000/svg">
<path d="M48.616 48.616V52.097C48.616 55.932 45.489 59.059 41.654 59.059H6.962C3.127 59.059 0 55.932 0 52.097V17.405C0 13.57 3.127 10.443 6.962 10.443H10.443V6.96199C10.443 3.12699 13.57 0 17.405 0H52.097C55.932 0 59.059 3.12699 59.059 6.96199V41.654C59.059 45.489 55.932 48.616 52.097 48.616H48.616ZM10.384 13.865H6.903C5.015 13.865 3.422 15.399 3.422 17.346V52.038C3.422 53.926 4.956 55.519 6.903 55.519H41.595C43.483 55.519 45.076 53.985 45.076 52.038V48.557H17.287C13.452 48.557 10.325 45.43 10.325 41.595V13.865H10.384ZM17.346 3.48101C15.458 3.48101 13.865 5.01499 13.865 6.96199V41.654C13.865 43.542 15.399 45.135 17.346 45.135H52.038C53.926 45.135 55.519 43.601 55.519 41.654V6.96199C55.519 5.07399 53.985 3.48101 52.038 3.48101H17.346ZM39.53 19.588C40.179 18.939 41.3 18.939 42.008 19.588C42.657 20.237 42.657 21.358 42.008 22.066L34.22 29.854C33.571 30.503 32.45 30.503 31.742 29.854L27.376 25.488C26.727 24.839 26.727 23.718 27.376 23.01C28.025 22.361 29.146 22.361 29.854 23.01L32.981 26.137L39.53 19.588Z" fill="#020055"/>
</svg>
