<svg width="126" height="139" viewBox="0 0 126 139" fill="none" xmlns="http://www.w3.org/2000/svg">
<g clip-path="url(#clip0)">
<path d="M53.4912 112.037H33.7023C32.9293 112.037 32.1562 111.417 32.1562 110.487V90.6521C32.1562 89.8773 32.7747 89.1025 33.7023 89.1025H53.4912C54.2642 89.1025 55.0372 89.7224 55.0372 90.6521V110.487C54.8826 111.262 54.2642 112.037 53.4912 112.037ZM35.0937 109.093H51.9452V92.0468H35.0937V109.093Z" fill="white"/>
<path d="M73.5889 112.037C67.2503 112.037 62.1484 106.923 62.1484 100.57C62.1484 94.2163 67.2503 89.1025 73.5889 89.1025C79.9276 89.1025 85.0294 94.2163 85.0294 100.57C84.8748 106.923 79.773 112.037 73.5889 112.037ZM73.5889 92.0468C68.9509 92.0468 65.0859 95.7659 65.0859 100.57C65.0859 105.218 68.7963 109.093 73.5889 109.093C78.3816 109.093 82.092 105.373 82.092 100.57C81.9374 95.9208 78.227 92.0468 73.5889 92.0468Z" fill="white"/>
<path d="M113.476 112.037H93.6875C93.2237 112.037 92.7599 111.727 92.4507 111.262C92.1414 110.797 92.1414 110.332 92.4507 109.867L102.345 90.0324C102.654 89.5675 103.118 89.2576 103.737 89.2576C104.355 89.2576 104.819 89.5675 105.128 90.0324L115.022 109.867C115.177 110.332 115.177 110.797 115.022 111.262C114.404 111.727 113.94 112.037 113.476 112.037ZM96.0065 109.093H111.003L103.582 93.9064L96.0065 109.093Z" fill="white"/>
<path d="M107.912 35.9509C106.366 35.9509 104.82 35.3311 103.738 34.2463L91.8334 22.3143C90.7512 21.2296 90.1328 19.68 90.1328 18.1304C90.1328 16.5808 90.7512 15.0312 91.8334 13.9464C94.1524 11.622 97.8629 11.622 100.182 13.9464L112.086 25.8784C113.168 26.9632 113.787 28.5128 113.787 30.0624C113.787 31.612 113.168 33.1616 112.086 34.2463C111.004 35.3311 109.458 35.9509 107.912 35.9509ZM93.8432 20.2998L105.748 32.2318C106.984 33.3166 108.84 33.3166 109.922 32.2318C110.54 31.612 110.849 30.9921 110.849 30.2173C110.849 29.4425 110.54 28.6677 109.922 28.2028L98.0175 16.2709C96.7807 15.1861 94.9255 15.1861 93.8432 16.2709C93.2248 16.8907 92.9156 17.5105 92.9156 18.2853C93.0702 18.9052 93.3794 19.68 93.8432 20.2998Z" fill="white"/>
<path d="M75.5999 55.476C74.3631 55.476 72.9717 55.0111 72.0441 53.9264C71.1165 52.9966 70.498 51.7569 70.498 50.3623C70.498 48.9676 70.9619 47.7279 72.0441 46.7982L74.0539 44.7837C73.2809 41.5295 74.2085 38.2753 76.6821 35.7959L92.1422 20.2998C92.7606 19.68 93.6882 19.68 94.152 20.2998C94.7704 20.9197 94.7704 21.8495 94.152 22.3143L78.6919 37.8104C76.8367 39.67 76.3729 42.1493 77.1459 44.6287C77.3005 45.0936 77.1459 45.7134 76.8367 46.1783L74.2085 48.9676C73.7447 49.4325 73.5901 49.8974 73.5901 50.5172C73.5901 51.1371 73.7447 51.602 74.2085 52.0668C74.9815 52.8416 76.3729 52.8416 77.1459 52.0668L79.7741 49.4325C80.2379 48.9676 80.7017 48.9676 81.3201 49.1226C83.7938 49.8974 86.2674 49.2775 88.1226 47.573L98.3263 37.3456C98.9447 36.7257 99.8723 36.7257 100.336 37.3456C100.954 37.9654 100.954 38.8952 100.336 39.36L90.1324 49.5875C87.8134 51.9119 84.4122 52.8416 81.1655 52.0668L79.1557 54.0813C78.2281 55.0111 76.8367 55.476 75.5999 55.476Z" fill="white"/>
<path d="M110.848 28.048C110.539 28.048 110.075 27.893 109.766 27.5831C109.148 26.9633 109.148 26.0335 109.766 25.5686L121.052 14.2565C122.289 13.0168 122.907 11.3122 122.907 9.60765C122.907 7.90308 122.289 6.19851 121.052 4.95882C118.424 2.32448 114.25 2.32448 111.776 4.95882L106.983 9.76261C106.365 10.3825 105.437 10.3825 104.974 9.76261C104.355 9.14277 104.355 8.213 104.974 7.74812L109.766 2.94433C113.477 -0.774737 119.506 -0.774737 123.217 2.94433C125.072 4.80386 125.999 7.12827 125.999 9.76261C125.999 12.3969 125.072 14.7214 123.217 16.5809L111.931 27.893C111.467 27.893 111.158 28.048 110.848 28.048Z" fill="white"/>
<path d="M73.5904 79.6499C69.1069 79.6499 65.3965 75.9308 65.3965 71.437C65.3965 67.408 71.2713 60.4347 72.5081 59.0401C72.8174 58.7302 73.1265 58.5752 73.5904 58.5752C74.0542 58.5752 74.3634 58.7302 74.6726 59.0401C75.9094 60.4347 81.7842 67.408 81.7842 71.437C81.7842 76.0858 78.0738 79.6499 73.5904 79.6499ZM73.5904 62.4492C71.2713 65.3935 68.3339 69.5774 68.3339 71.5919C68.3339 74.5362 70.6529 76.8606 73.5904 76.8606C76.5278 76.8606 78.8468 74.5362 78.8468 71.5919C78.8468 69.7324 76.064 65.5484 73.5904 62.4492Z" fill="white"/>
<path d="M23.4994 138.38H5.10184C2.31902 138.38 0 136.056 0 133.267V67.873C0 65.0837 2.31902 62.7593 5.10184 62.7593H23.4994C24.2724 62.7593 25.0454 63.3791 25.0454 64.3089V136.986C24.8908 137.76 24.2724 138.38 23.4994 138.38ZM5.10184 65.7035C3.86503 65.7035 2.93742 66.6333 2.93742 67.873V133.267C2.93742 134.506 3.86503 135.436 5.10184 135.436H21.9534V65.7035H5.10184Z" fill="white"/>
<path d="M12.5236 106.923C9.12236 106.923 6.49414 104.134 6.49414 100.88C6.49414 97.4705 9.27696 94.8362 12.5236 94.8362C15.7702 94.8362 18.553 97.6255 18.553 100.88C18.553 104.289 15.7702 106.923 12.5236 106.923ZM12.5236 97.7804C10.823 97.7804 9.43156 99.1751 9.43156 100.88C9.43156 102.584 10.823 103.979 12.5236 103.979C14.2242 103.979 15.6156 102.584 15.6156 100.88C15.6156 99.1751 14.2242 97.7804 12.5236 97.7804Z" fill="white"/>
<path d="M13.4503 127.533C12.6773 127.533 11.9043 126.913 11.9043 125.983V118.855C11.9043 118.08 12.5227 117.305 13.4503 117.305C14.3779 117.305 14.9963 117.925 14.9963 118.855V125.983C14.9963 126.913 14.2233 127.533 13.4503 127.533Z" fill="white"/>
<path d="M13.4503 84.2987C12.6773 84.2987 11.9043 83.6789 11.9043 82.7491V75.6209C11.9043 74.8461 12.5227 74.0713 13.4503 74.0713C14.3779 74.0713 14.9963 74.6911 14.9963 75.6209V82.7491C14.9963 83.5239 14.2233 84.2987 13.4503 84.2987Z" fill="white"/>
<path d="M23.4991 138.38C22.7261 138.38 21.9531 137.76 21.9531 136.831V64.1539C21.9531 63.3791 22.5715 62.6042 23.4991 62.6042H61.531C62.304 62.6042 63.077 63.2241 63.077 64.1539C63.077 64.9287 62.4586 65.7035 61.531 65.7035H24.8905V136.986C24.8905 137.76 24.2721 138.38 23.4991 138.38Z" fill="white"/>
<path d="M119.97 138.38H41.587C40.814 138.38 40.041 137.76 40.041 136.831C40.041 135.901 40.6594 135.281 41.587 135.281H119.97C121.207 135.281 122.134 134.351 122.134 133.111V67.8729C122.134 66.6332 121.207 65.7035 119.97 65.7035H85.6484C84.8754 65.7035 84.1024 65.0836 84.1024 64.1539C84.1024 63.3791 84.7208 62.6042 85.6484 62.6042H119.97C122.753 62.6042 125.072 64.9287 125.072 67.718V133.266C125.072 136.056 122.753 138.38 119.97 138.38Z" fill="white"/>
<path d="M33.084 139C34.194 139 35.0939 138.098 35.0939 136.985C35.0939 135.873 34.194 134.971 33.084 134.971C31.974 134.971 31.0742 135.873 31.0742 136.985C31.0742 138.098 31.974 139 33.084 139Z" fill="white"/>
</g>
<defs>
<clipPath id="clip0">
<rect width="126" height="139" fill="white"/>
</clipPath>
</defs>
</svg>
