<svg width="105" height="87" viewBox="0 0 105 87" fill="none" xmlns="http://www.w3.org/2000/svg">
<g clip-path="url(#clip0)">
<path d="M90.3729 0.722656H14.6281C6.9522 0.722656 0.724609 6.93694 0.724609 14.5964V72.2592C0.724609 79.9187 6.9522 86.1329 14.6281 86.1329H90.3729C98.0488 86.1329 104.276 79.9187 104.276 72.2592V14.5964C104.276 6.93694 98.0488 0.722656 90.3729 0.722656ZM90.3729 84.9768H14.6281C7.67634 84.9768 2.02806 79.3406 2.02806 72.4037V14.5964C2.02806 7.65953 7.67634 2.02332 14.6281 2.02332H90.3729C97.3246 2.02332 102.973 7.65953 102.973 14.5964V72.2592C102.973 79.3406 97.3246 84.9768 90.3729 84.9768Z" fill="white" stroke="white" stroke-width="2" stroke-miterlimit="10"/>
<path d="M44.6079 36.5632C39.6838 36.5632 35.7734 40.4652 35.7734 45.3788C35.7734 50.2925 39.6838 54.1945 44.6079 54.1945C49.5321 54.1945 53.4424 50.2925 53.4424 45.3788C53.4424 40.6097 49.3872 36.5632 44.6079 36.5632ZM44.6079 52.8938C40.4079 52.8938 37.0769 49.5699 37.0769 45.3788C37.0769 41.1878 40.4079 37.8639 44.6079 37.8639C48.8079 37.8639 52.139 41.1878 52.139 45.3788C52.139 49.5699 48.8079 52.8938 44.6079 52.8938Z" fill="white" stroke="white" stroke-width="2" stroke-miterlimit="10"/>
<path d="M90.6632 10.6943H83.1322C82.8425 10.6943 82.5529 10.9834 82.5529 11.2724V23.5565C82.5529 23.8455 82.8425 24.1345 83.1322 24.1345H86.3184V41.4767L75.3115 47.8355C75.3115 47.1129 75.4563 46.2458 75.4563 45.3787C75.4563 28.4701 61.5529 14.5963 44.608 14.5963C27.5184 14.5963 13.7598 28.4701 13.7598 45.3787C13.7598 62.2874 27.6632 76.1611 44.608 76.1611C60.2494 76.1611 73.2839 64.4551 75.1667 49.4252L87.1873 42.4884C87.3322 42.3438 87.477 42.1993 87.477 41.9103V24.2791H90.6632C90.9529 24.2791 91.2425 23.99 91.2425 23.701V11.4169C91.2425 10.9834 90.9529 10.6943 90.6632 10.6943ZM74.008 48.5581L56.3391 58.8189L55.6149 57.6628C55.4701 57.3737 55.0356 57.2292 54.746 57.3737L44.3184 63.299C44.0287 63.4435 43.8839 63.8771 44.0287 64.1661L46.0563 67.6345C46.2011 67.7791 46.346 67.9236 46.4908 67.9236H46.6356C46.7805 67.9236 46.9253 67.9236 46.9253 67.7791L57.3529 61.8538C57.6425 61.7093 57.7873 61.2757 57.6425 60.9867L56.9184 59.8306L73.7184 50.1478C71.4011 64.1661 59.2356 74.8605 44.608 74.8605C28.2425 74.8605 15.0632 61.5648 15.0632 45.3787C15.0632 29.0482 28.3873 15.897 44.608 15.897C60.9736 15.897 74.1529 29.1927 74.1529 45.3787C74.1529 46.5349 74.1529 47.5465 74.008 48.5581ZM56.1942 61.1312L46.9253 66.4784L45.6218 64.1661L54.8908 58.8189L56.1942 61.1312ZM90.0839 22.9784H83.8563V11.995H90.0839V22.9784Z" fill="white" stroke="white" stroke-width="2" stroke-miterlimit="10"/>
<path d="M44.6067 44.8008C44.317 44.8008 44.0273 45.0898 44.0273 45.3789C44.0273 45.6679 44.317 45.9569 44.6067 45.9569C44.8963 45.9569 45.186 45.6679 45.186 45.3789C45.186 45.0898 44.8963 44.8008 44.6067 44.8008Z" fill="white" stroke="white" stroke-width="2" stroke-miterlimit="10"/>
</g>
<defs>
<clipPath id="clip0">
<rect width="105" height="87" fill="white"/>
</clipPath>
</defs>
</svg>
