<svg width="104" height="99" viewBox="0 0 104 99" fill="none" xmlns="http://www.w3.org/2000/svg">
<g clip-path="url(#clip0)">
<path d="M93.8346 77.4171L104 34.7204C104.313 33.4692 104 32.3744 103.218 31.436C102.436 30.4976 101.341 29.872 100.09 29.872H88.8301V20.3318H83.6692C83.2 18.6114 82.418 17.0474 81.7925 15.4834L85.5459 11.7299L77.1008 3.28436L73.5038 7.03792C71.9398 6.25592 70.3759 5.47393 68.6556 5.16114V0H56.6135V5.16114C54.8932 5.63033 53.3293 6.41232 51.7654 7.03792L48.012 3.28436L39.5669 11.7299L43.1639 15.327C42.382 16.891 41.6 18.455 41.1308 20.1754H36.2827V29.7156H19.2361L14.0752 10.6351C13.4496 8.2891 11.4165 6.72512 9.07068 6.72512H0V9.85308H9.07068C9.85263 9.85308 10.791 10.4787 10.9474 11.4171L28.4632 77.4171C28.9323 79.1375 30.4962 80.2322 32.2165 80.2322H90.0812C91.8015 80.3886 93.3654 79.1375 93.8346 77.4171ZM39.4105 23.6161H43.9459L44.2586 22.3649C44.7278 20.1754 45.5098 18.1422 46.7609 16.2654L47.5429 15.1706L44.415 12.0427L48.3248 8.1327L51.4526 11.2607L52.5474 10.6351C54.4241 9.38389 56.4571 8.6019 58.6466 8.1327L59.8977 7.81991V3.28436H65.3714V7.81991L66.6226 8.1327C68.812 8.6019 70.8451 9.38389 72.7218 10.6351L73.8165 11.4171L76.9444 8.1327L80.8541 12.0427L77.7263 15.1706L78.3519 16.2654C79.603 18.1422 80.385 20.1754 80.8541 22.3649L81.1669 23.6161H85.7023V30.0284H75.0677C75.3804 28.7773 75.5368 27.5261 75.5368 26.2749C75.5368 19.0806 69.594 13.1374 62.4 13.1374C55.206 13.1374 49.2632 19.0806 49.2632 26.2749C49.2632 27.5261 49.4195 28.7773 49.7323 30.0284H39.0977V23.6161H39.4105ZM53.3293 30.0284C52.8601 28.7773 52.5474 27.5261 52.5474 26.2749C52.5474 20.8009 57.0827 16.4218 62.4 16.4218C67.7173 16.4218 72.2526 20.9573 72.2526 26.2749C72.2526 27.5261 72.0962 28.7773 71.4707 30.0284H53.3293ZM31.591 76.6351L20.018 33.1564H72.7218H100.09C100.403 33.1564 100.559 33.3128 100.559 33.3128C100.716 33.4692 100.716 33.6256 100.716 33.782L90.5504 76.6351C90.394 76.9479 90.2376 77.1043 89.9248 77.1043H32.2165C31.9038 77.2607 31.7474 77.1043 31.591 76.6351Z" fill="white"/>
<path d="M88.36 45.6682H33.4668V48.7962H88.36V45.6682Z" fill="white"/>
<path d="M83.8263 62.2466H38.1602V65.3745H83.8263V62.2466Z" fill="white"/>
<path d="M36.127 91.18C36.127 95.5592 39.7239 98.9999 43.9465 98.9999C48.1691 98.9999 51.766 95.4028 51.766 91.18C51.766 86.9573 48.1691 83.3601 43.9465 83.3601C39.7239 83.3601 36.127 86.8009 36.127 91.18ZM48.6382 91.18C48.6382 93.6824 46.4488 95.872 43.9465 95.872C41.4442 95.872 39.2548 93.6824 39.2548 91.18C39.2548 88.6776 41.4442 86.4881 43.9465 86.4881C46.4488 86.4881 48.6382 88.5212 48.6382 91.18Z" fill="white"/>
<path d="M71.627 91.18C71.627 95.5592 75.2239 98.9999 79.4465 98.9999C83.6691 98.9999 87.2661 95.4028 87.2661 91.18C87.2661 86.9573 83.6691 83.3601 79.4465 83.3601C75.2239 83.3601 71.627 86.8009 71.627 91.18ZM84.1382 91.18C84.1382 93.6824 81.9488 95.872 79.4465 95.872C76.9442 95.872 74.7548 93.6824 74.7548 91.18C74.7548 88.6776 76.9442 86.4881 79.4465 86.4881C81.9488 86.4881 84.1382 88.5212 84.1382 91.18Z" fill="white"/>
</g>
<defs>
<clipPath id="clip0">
<rect width="104" height="99" fill="white"/>
</clipPath>
</defs>
</svg>
