<svg width="83" height="99" viewBox="0 0 83 99" fill="none" xmlns="http://www.w3.org/2000/svg">
<path d="M80.1583 79.4608H80.2394L80.3164 79.4352C80.3876 79.4114 80.5213 79.4118 80.7079 79.4836C80.888 79.5529 81.0524 79.6648 81.1507 79.763C81.2707 79.883 81.3409 79.9832 81.3838 80.0799C81.4258 80.1744 81.4529 80.2903 81.4529 80.4563C81.4529 80.4557 81.4529 80.4558 81.4528 80.4565C81.4524 80.4602 81.4497 80.4827 81.4338 80.5247C81.4162 80.5714 81.3879 80.6267 81.3499 80.6837C81.2673 80.8077 81.1773 80.8833 81.1311 80.9064L81.0585 80.9426L81.0011 81L74.1219 87.8792L73.7683 88.2327L74.1219 88.5863L81.0011 95.4654C81.4041 95.8684 81.4041 96.5986 81.0011 97.0015C80.8811 97.1215 80.7809 97.1917 80.6843 97.2346C80.5898 97.2766 80.4738 97.3037 80.3078 97.3037C80.2331 97.3037 80.1093 97.283 79.9701 97.2273C79.833 97.1725 79.7072 97.0942 79.6145 97.0015L72.7353 90.1224L72.3817 89.7688L72.0282 90.1224L65.1489 97.0015C64.746 97.4044 64.0157 97.4044 63.6127 97.0015C63.5201 96.9088 63.4418 96.783 63.3869 96.646C63.3313 96.5067 63.3105 96.383 63.3105 96.3083C63.3105 96.2335 63.3313 96.1098 63.3869 95.9705C63.4418 95.8335 63.5201 95.7076 63.6127 95.615L63.2592 95.2614L63.6127 95.615L70.492 88.7358L70.8456 88.3823L70.492 88.0287L63.6655 81.2024C63.6251 81.1299 63.5823 81.0627 63.544 81.0045C63.523 80.9725 63.5043 80.9445 63.4869 80.9184C63.4566 80.873 63.4303 80.8335 63.4028 80.7895C63.3226 80.6611 63.3121 80.6125 63.3107 80.6063C63.3106 80.6055 63.3105 80.6054 63.3105 80.6058C63.3105 80.3715 63.312 80.1941 63.3399 80.041C63.3658 79.8982 63.4084 79.8179 63.4632 79.763C63.791 79.4353 63.9474 79.3113 64.1565 79.3113H64.306C64.6544 79.3113 64.9629 79.4287 65.1472 79.6118L72.0244 86.6384L72.3779 86.9995L72.7353 86.6422L79.6145 79.763C79.8591 79.5184 80.0386 79.4608 80.1583 79.4608Z" fill="white" stroke="white"/>
<path d="M40.4303 5.08459V3.8775L39.5767 4.73104L30.7533 13.5543C30.6332 13.6743 30.5331 13.7445 30.4364 13.7874C30.3419 13.8294 30.226 13.8565 30.06 13.8565C29.9852 13.8565 29.8615 13.8358 29.7223 13.7801C29.5852 13.7253 29.4594 13.647 29.3667 13.5543C29.274 13.4616 29.1957 13.3358 29.1409 13.1987C29.0852 13.0595 29.0645 12.9358 29.0645 12.861C29.0645 12.7863 29.0852 12.6625 29.1409 12.5233C29.1957 12.3862 29.274 12.2604 29.3667 12.1678L40.7325 0.802197C40.9771 0.557602 41.1565 0.5 41.2762 0.5C41.4503 0.5 41.6625 0.529823 41.8582 0.59005C42.0592 0.651904 42.1969 0.731539 42.2668 0.800415C42.2674 0.80101 42.268 0.801604 42.2686 0.802197L53.4802 12.3126L53.4802 12.3127L53.4848 12.3173C53.5775 12.41 53.6558 12.5358 53.7106 12.6729C53.7663 12.8121 53.787 12.9358 53.787 13.0106C53.787 13.0853 53.7663 13.2091 53.7106 13.3483C53.6558 13.4854 53.5775 13.6112 53.4848 13.7038C53.3648 13.8239 53.2646 13.894 53.168 13.937C53.0735 13.979 52.9575 14.006 52.7915 14.006C52.7168 14.006 52.593 13.9853 52.4538 13.9296C52.3167 13.8748 52.1909 13.7965 52.0982 13.7038L43.2748 4.88058L42.4212 4.02705V5.23414V17.497C42.4212 22.9667 40.2714 27.7642 37.2235 32.0497C34.2064 36.2919 30.3345 39.9987 26.845 43.3395L26.7313 43.4483L25.5433 44.4878L25.535 44.4951L25.527 44.5027L25.4335 44.5922C22.0342 47.8435 18.7513 50.9836 16.2049 54.2789L16.2042 54.2797C13.1775 58.2143 11.614 61.7596 11.614 65.5015V72.3807C11.614 72.7157 11.5045 72.956 11.3492 73.1113C11.1939 73.2666 10.9536 73.3761 10.6185 73.3761C10.2835 73.3761 10.0432 73.2666 9.88786 73.1113C9.73254 72.956 9.62305 72.7157 9.62305 72.3807V65.5015C9.62305 61.3094 11.2071 57.3769 14.6021 52.9479C17.4179 49.3917 20.9798 45.9771 24.4236 42.6831L24.4237 42.6832L24.4316 42.6753L25.3239 41.783C29.4346 37.8964 33.206 34.128 35.948 30.1757C38.6965 26.2142 40.4303 22.041 40.4303 17.3474V5.08459Z" fill="white" stroke="white"/>
<path d="M8.87838 26.973L9.23585 26.6155L8.87447 26.262L2.05043 19.5864C2.01046 19.515 1.96816 19.4487 1.93038 19.3912C1.90939 19.3592 1.89069 19.3312 1.8733 19.3051C1.84298 19.2597 1.81665 19.2202 1.78914 19.1762C1.70892 19.0478 1.69843 18.9992 1.69709 18.993C1.69692 18.9922 1.6969 18.9921 1.6969 18.9925V18.9512L1.69009 18.9103C1.58955 18.3071 1.97485 17.8164 2.4482 17.698H2.54284H2.62398L2.70096 17.6723C2.77167 17.6488 2.86221 17.6511 2.99022 17.7092C3.12259 17.7694 3.26108 17.8756 3.38569 18.0002L10.265 24.8793L10.6185 25.2329L10.9721 24.8793L17.8513 18.0002C18.0959 17.7556 18.2754 17.698 18.3951 17.698H18.4762L18.5532 17.6723C18.6244 17.6486 18.7581 17.649 18.9447 17.7207C19.1248 17.79 19.2892 17.9019 19.3875 18.0002C19.5075 18.1202 19.5777 18.2204 19.6206 18.317C19.6626 18.4115 19.6897 18.5275 19.6897 18.6934C19.6897 18.8594 19.6626 18.9754 19.6206 19.0699C19.5777 19.1665 19.5075 19.2667 19.3875 19.3867L12.5082 26.2659L12.1547 26.6194L12.5082 26.973L19.3875 33.8521C19.7904 34.2551 19.7904 34.9853 19.3875 35.3882C19.2675 35.5083 19.1673 35.5784 19.0706 35.6214C18.9761 35.6634 18.8602 35.6904 18.6942 35.6904C18.6194 35.6904 18.4957 35.6697 18.3565 35.614C18.2194 35.5592 18.0936 35.4809 18.0009 35.3882L11.1216 28.5091L10.7681 28.1555L10.4145 28.5091L3.53524 35.3882C3.1323 35.7912 2.40203 35.7912 1.9991 35.3882L1.64822 35.7391L1.9991 35.3882C1.59617 34.9853 1.59616 34.2551 1.9991 33.8521L8.87838 26.973Z" fill="white" stroke="white"/>
<path d="M0.5 88.3822C0.5 82.6811 5.05711 78.2644 10.618 78.2644C16.3193 78.2644 20.736 82.8214 20.736 88.3822C20.736 93.9384 16.1743 98.5001 10.618 98.5001C5.05711 98.5001 0.5 94.0834 0.5 88.3822ZM2.49099 88.3822C2.49099 92.8457 6.1545 96.5091 10.618 96.5091C15.0815 96.5091 18.745 92.8457 18.745 88.3822C18.745 83.9188 15.0815 80.2553 10.618 80.2553C6.1545 80.2553 2.49099 83.9188 2.49099 88.3822Z" fill="white" stroke="white"/>
<path d="M31.457 57.4259C31.457 51.8698 36.0187 47.3081 41.575 47.3081C47.1313 47.3081 51.6931 51.8698 51.6931 57.4259C51.6931 62.9821 47.1313 67.5437 41.575 67.5437C36.0187 67.5437 31.457 62.9821 31.457 57.4259ZM33.448 57.4259C33.448 61.8894 37.1115 65.5528 41.575 65.5528C46.0386 65.5528 49.7021 61.8894 49.7021 57.4259C49.7021 52.9625 46.0386 49.299 41.575 49.299C37.1115 49.299 33.448 52.9625 33.448 57.4259Z" fill="white" stroke="white"/>
<path d="M82.4997 26.7689C82.4997 32.3251 77.938 36.8868 72.3817 36.8868C66.6804 36.8868 62.2637 32.3297 62.2637 26.7689C62.2637 21.2128 66.8254 16.6511 72.3817 16.6511C77.938 16.6511 82.4997 21.2128 82.4997 26.7689ZM80.5087 26.6194C80.5087 22.1559 76.8452 18.4925 72.3817 18.4925C67.9182 18.4925 64.2547 22.1559 64.2547 26.6194C64.2547 31.0829 67.9182 34.7463 72.3817 34.7463C76.8452 34.7463 80.5087 31.0829 80.5087 26.6194Z" fill="white" stroke="white"/>
</svg>
