<svg width="27" height="24" viewBox="0 0 27 24" fill="none" xmlns="http://www.w3.org/2000/svg">
<path d="M7.32401 1C5.71217 1 4.06743 1.64705 2.85033 2.90881C0.383224 5.46469 0.383224 9.57352 2.85033 12.1294L13.2451 22.9029C13.3766 23.0323 13.574 23.0324 13.7056 22.9353C13.7056 22.9353 13.7056 22.9353 13.7385 22.9029C17.2253 19.3117 20.6793 15.7206 24.1661 12.1618C26.6332 9.60588 26.6332 5.49706 24.1661 2.94118C21.699 0.385294 17.6859 0.385294 15.1859 2.94118L13.5082 4.65588L11.8306 2.90881C10.5477 1.64705 8.93585 1 7.32401 1ZM7.32401 1.61469C8.77138 1.61469 10.2188 2.19704 11.3372 3.3294L13.2451 5.33528C13.3766 5.46469 13.574 5.46471 13.7056 5.36765C13.7056 5.36765 13.7056 5.36764 13.7385 5.33528L15.6464 3.36176C17.8832 1.0647 21.4359 1.0647 23.6398 3.36176C25.8766 5.65882 25.8766 9.37941 23.6398 11.6765C20.2516 15.1706 16.8635 18.6647 13.4753 22.1912L3.31086 11.6765C1.07401 9.37941 1.07401 5.65882 3.31086 3.36176C4.42928 2.19705 5.87664 1.61469 7.32401 1.61469Z" fill="#020055" stroke="#020055" stroke-width="1.5"/>
</svg>
