<svg width="27" height="24" viewBox="0 0 27 24" fill="none" xmlns="http://www.w3.org/2000/svg">
<path d="M25.011 2.24561C22.3465 -0.526316 18.0123 -0.526316 15.3478 2.24561L13.5004 4.10526L11.6886 2.21053C10.4452 0.842105 8.70438 0 6.71491 0C3.37544 0 0.63991 2.45614 0.178068 5.61404C-0.354826 7.89474 0.249121 10.4211 1.98991 12.2105L13.2162 23.8947C13.3583 24.0351 13.5715 24.0351 13.7136 23.9298C13.7136 23.9298 13.7136 23.9298 13.7491 23.8947C17.5149 20 21.2452 16.1053 25.011 12.2105C27.6754 9.4386 27.6754 5.01754 25.011 2.24561ZM3.90833 13.1579C3.90833 13.193 3.94386 13.193 3.94386 13.2281L3.83728 13.1228C3.90833 13.1579 3.90833 13.1579 3.90833 13.1579ZM24.6912 11.4737C24.7623 11.4035 24.8333 11.2982 24.9044 11.2281C24.8689 11.2982 24.7978 11.4035 24.6912 11.4737Z" fill="#EC8581"/>
</svg>
